# AST/ASF file generated using VICON BodyLanguage
# -----------------------------------------------
:version 1.10
:name VICON
:units
  mass 1.0
  length 0.45
  angle deg
:documentation
   .ast/.asf automatically generated from VICON data using
   VICON BodyBuilder and BodyLanguage model FoxedUp or BRILLIANT.MOD
:root
   order TX TY TZ RX RY RZ
   axis XYZ
   position 0 0 0  
   orientation 0 0 0 
:bonedata
  begin
     id 1 
     name lhipjoint
     direction 0.528046 -0.759594 0.379717 
     length 2.39752 
     axis 0 0 0  XYZ
  end
  begin
     id 2 
     name lfemur
     direction 0.34202 -0.939693 0  
     length 7.31175  
     axis 0 0 20  XYZ
    dof rx ry rz
    limits (-160.0 20.0)
           (-70.0 70.0)
           (-60.0 70.0)
  end
  begin
     id 3 
     name ltibia
     direction 0.34202 -0.939693 0   
     length 7.52482   
     axis 0 0 20   XYZ
    dof rx
    limits (-10.0 170.0)
  end
  begin
     id 4 
     name lfoot
     direction 0.0675379 -0.185559 0.980309   
     length 2.00961   
     axis -90 7.62852e-016 20   XYZ
    dof rx rz
    limits (-45.0 90.0)
           (-70.0 20.0)
  end
  begin
     id 5 
     name ltoes
     direction 1.5352e-011 -4.22286e-011 1   
     length 1.01383   
     axis -90 7.62852e-016 20   XYZ
    dof rx
    limits (-90.0 20.0)
  end
  begin
     id 6 
     name rhipjoint
     direction -0.510274 -0.769251 0.384544   
     length 2.36742  
     axis 0 0 0  XYZ 
  end
  begin
     id 7 
     name rfemur
     direction -0.34202 -0.939693 0   
     length 7.45325   
     axis 0 0 -20   XYZ
    dof rx ry rz
    limits (-160.0 20.0)
           (-70.0 70.0)
           (-70.0 60.0)
  end
  begin
     id 8 
     name rtibia
     direction -0.34202 -0.939693 0   
     length 7.49587   
     axis 0 0 -20   XYZ
    dof rx
    limits (-10.0 170.0)
 end
 begin
     id 9 
     name rfoot
     direction -0.106475 -0.292536 0.950308   
     length 2.20898  
     axis -90 -7.62852e-016 -20   XYZ
    dof rx rz
    limits (-45.0 90.0)
           (-20.0 70.0)
  end
  begin
     id 10 
     name rtoes
     direction -1.53597e-011 -4.22023e-011 1   
     length 1.10065   
     axis -90 -7.62852e-016 -20   XYZ
    dof rx
    limits (-90.0 20.0)
  end
  begin
     id 11 
     name lowerback
     direction 0.0260024 0.998026 -0.0571652   
     length 2.11214   
     axis 0 0 0   XYZ
    dof rx ry rz
    limits (-20.0 45.0)
           (-30.0 30.0)
           (-30.0 30.0)
  end
  begin
     id 12 
     name upperback
     direction 0.0216202 0.999542 -0.0211766   
     length 2.11689   
     axis 0 0 0   XYZ
    dof rx ry rz
    limits (-20.0 45.0)
           (-30.0 30.0)
           (-30.0 30.0)
  end
  begin
     id 13 
     name thorax
     direction 0.00883312 0.999944 0.00589057   
     length 2.11821   
     axis 0 0 0   XYZ
    dof rx ry rz
    limits (-20.0 45.0)
           (-30.0 30.0)
           (-30.0 30.0)
  end
  begin
     id 14 
     name lowerneck
     direction -0.059386 0.994433 0.0870401   
     length 1.81176   
     axis 0 0 0   XYZ
    dof rx ry rz
    limits (-20.0 45.0)
           (-30.0 30.0)
           (-30.0 30.0)
  end
  begin
     id 15 
     name upperneck
     direction 0.0506457 0.97328 -0.223967   
     length 1.82382   
     axis 0 0 0   XYZ
    dof rx ry rz
    limits (-20.0 45.0)
           (-30.0 30.0)
           (-30.0 30.0)
  end
  begin
     id 16
     name head
     direction 0.0205902 0.996147 -0.0852487  
     length 1.84805  
     axis 0 0 0   XYZ
    dof rx ry rz
    limits (-20.0 45.0)
           (-30.0 30.0)
           (-30.0 30.0)
  end
  begin
     id 17 
     name lclavicle
     direction 0.949493 0.303881 -0.0782325  
     length 3.60584  
     axis 0 0 0   XYZ
    dof ry rz
    limits (-20.0 10.0)
           (0.0 20.0)
  end
  begin
     id 18 
     name lhumerus
     direction 1 -4.48965e-011 1.48782e-027   
     length 4.95681   
     axis 180 -30 -90   XYZ
    dof rx ry rz
    limits (-60.0 90.0)
           (-90.0 90.0)
           (-90.0 90.0)
  end
  begin
     id 19
     name lradius
     direction 1 -4.48952e-011 2.06528e-027   
     length 3.40915   
     axis 180 -30 -90   XYZ
    dof rx
    limits (-10.0 170.0)
  end
  begin
     id 20
     name lwrist
     direction 1 -4.48964e-011 1.28021e-027   
     length 1.70457   
     axis -1.61767e-015 90 90   XYZ
    dof ry
    limits (-180.0 0.0)
 end
  begin
     id 21 
     name lhand
     direction 1 -4.49094e-011 2.54887e-027   
     length 0.616403   
     axis -1.63363e-015 90 90   XYZ
    dof rx rz
    limits (-90.0 90.0)
           (-45.0 45.0)
  end
  begin
     id 22 
     name lfingers
     direction 1 -4.49002e-011 5.11407e-027   
     length 0.49696   
     axis -3.26723e-015 90 90   XYZ
    dof rx
    limits (0.0 90.0)
  end
  begin
     id 23
     name lthumb
     direction 0.707107 -6.34998e-011 0.707107   
     length 0.713539   
     axis -90 45 -2.25915e-014   XYZ
    dof rx rz
    limits (-45.0 45.0)
           (-45.0 45.0)
  end
  begin
     id 24 
     name rclavicle
     direction -0.937751 0.334612 -0.0930482   
     length 3.46287  
     axis 0 0 0   XYZ 
    dof ry rz
    limits (-10.0 20.0)
           (-20.0 0.0)
  end
  begin
     id 25 
     name rhumerus
     direction -1 -4.48962e-011 3.59972e-027  
     length 5.352   
     axis 180 30 90   XYZ
    dof rx ry rz
    limits (-90.0 60.0)
           (-90.0 90.0)
           (-90.0 90.0)
  end
  begin
     id 26 
     name rradius
     direction -1 -4.48987e-011 -3.76925e-027   
     length 3.43721   
     axis 180 30 90   XYZ
    dof rx
    limits (-10.0 170.0)
  end
  begin
     id 27 
     name rwrist
     direction -1 -4.48943e-011 1.28112e-027   
     length 1.7186   
     axis -1.61767e-015 -90 -90   XYZ
    dof ry
    limits (-180.0 0.0)
  end
  begin
     id 28
     name rhand
     direction -1 -4.49027e-011 2.55483e-027   
     length 0.72009   
     axis -1.63363e-015 -90 -90   XYZ
    dof rx rz
    limits (-90.0 90.0)
           (-45.0 45.0)
  end
  begin
     id 29
     name rfingers
     direction -1 -4.48827e-011 5.14506e-027   
     length 0.580555   
     axis -3.26723e-015 -90 -90   XYZ
    dof rx
    limits (0.0 90.0)
  end
  begin
     id 30
     name rthumb
     direction -0.707107 -6.34936e-011 0.707107   
     length 0.833564   
     axis -90 -45 2.25915e-014   XYZ
    dof rx rz
    limits (-45.0 45.0)
           (-45.0 45.0)
  end
:hierarchy
  begin
    root lhipjoint rhipjoint lowerback
    lhipjoint lfemur
    lfemur ltibia
    ltibia lfoot
    lfoot ltoes
    rhipjoint rfemur
    rfemur rtibia
    rtibia rfoot
    rfoot rtoes
    lowerback upperback
    upperback thorax
    thorax lowerneck lclavicle rclavicle
    lowerneck upperneck
    upperneck head
    lclavicle lhumerus
    lhumerus lradius
    lradius lwrist
    lwrist lhand lthumb
    lhand lfingers
    rclavicle rhumerus
    rhumerus rradius
    rradius rwrist
    rwrist rhand rthumb
    rhand rfingers
  end

#!OML:ASF H:\Terrain\Patient Classification 1\Terrain2\Thursday\justin.ASF
:FULLY-SPECIFIED
:DEGREES
826
root -1.7397 17.418 24.8917 1.60261 -1.39073 -6.05656
lowerback 5.10441 2.61873 4.62023
upperback 2.70051 3.70089 2.81776
thorax 0.031067 1.876 0.133252
lowerneck -13.2004 0.256719 -8.17424
upperneck 40.0241 2.28836 2.254
head 16.5319 0.068167 2.88064
rclavicle 3.4837e-014 1.59028e-014
rhumerus -31.4621 -14.9617 -77.5912
rradius 22.5109
rwrist -6.06393
rhand -21.2483 13.6535
rfingers 7.12502
rthumb 5.13457 -16.2643
lclavicle 3.4837e-014 1.59028e-014
lhumerus -35.7438 9.75093 84.0088
lradius 27.1155
lwrist -2.27429
lhand -14.4236 21.4534
lfingers 7.12502
lthumb 11.7207 51.1055
rfemur 13.0089 1.22967 28.4818
rtibia 13.9129
rfoot -18.4095 -6.8027
rtoes -2.98711
lfemur -28.7448 2.10154 -12.2088
ltibia 26.7601
lfoot -3.89496 -7.0287
ltoes -7.50104
827
root -1.72229 17.4291 24.9953 1.69042 -1.43034 -5.53508
lowerback 5.00859 2.65867 4.0693
upperback 2.61542 3.72762 2.63322
thorax -0.0269119 1.88391 0.24933
lowerneck -13.1816 0.297908 -8.11569
upperneck 40.1118 2.30937 2.31884
head 16.5703 0.0915973 2.90545
rclavicle 4.52235e-014 2.90226e-014
rhumerus -31.3513 -15.4017 -77.4507
rradius 22.3928
rwrist -5.82198
rhand -21.3301 13.3402
rfingers 7.12502
rthumb 5.05562 -16.5795
lclavicle 4.52235e-014 2.90226e-014
lhumerus -35.5319 9.75528 83.7791
lradius 27.1612
lwrist -1.99767
lhand -14.8715 21.8909
lfingers 7.12502
lthumb 11.2887 51.5671
rfemur 12.8753 1.27364 27.835
rtibia 14.6947
rfoot -18.2129 -6.87746
rtoes -4.4922
lfemur -28.5749 2.51023 -12.9717
ltibia 26.9807
lfoot -3.06612 -7.4877
ltoes -4.75435
828
root -1.69705 17.4453 25.0958 1.71223 -1.46425 -5.25098
lowerback 5.06613 2.66756 3.87138
upperback 2.46757 3.7399 2.48204
thorax -0.21402 1.88525 0.195238
lowerneck -13.131 0.35859 -7.8703
upperneck 40.3779 2.39536 2.16332
head 16.7021 0.132969 2.81516
rclavicle -3.598e-014 1.19271e-015
rhumerus -31.2975 -15.9436 -77.2502
rradius 22.2302
rwrist -5.66584
rhand -20.8789 12.4524
rfingers 7.12502
rthumb 5.49124 -17.4565
lclavicle -3.598e-014 1.19271e-015
lhumerus -35.5684 9.76427 83.4758
lradius 27.2199
lwrist -1.87874
lhand -15.4187 21.922
lfingers 7.12502
lthumb 10.7609 51.6263
rfemur 12.7597 1.46508 27.4903
rtibia 15.594
rfoot -17.7931 -7.15603
rtoes -7.22477
lfemur -28.418 3.33918 -13.6138
ltibia 27.2715
lfoot -3.10935 -8.34498
ltoes -3.94652
829
root -1.67002 17.465 25.2063 1.68267 -1.41684 -5.33187
lowerback 5.05196 2.56827 4.0027
upperback 2.36876 3.61733 2.49514
thorax -0.303358 1.82269 0.139171
lowerneck -13.0591 0.422475 -7.84912
upperneck 40.5382 2.50172 2.11935
head 16.7656 0.167209 2.81339
rclavicle 1.78906e-015 -1.39149e-014
rhumerus -31.2541 -15.5192 -77.3658
rradius 22.4799
rwrist -6.20956
rhand -20.6998 11.8425
rfingers 7.12502
rthumb 5.66418 -18.0618
lclavicle 1.78906e-015 -1.39149e-014
lhumerus -35.6965 9.96674 83.2265
lradius 27.2766
lwrist -1.74704
lhand -15.5455 21.3757
lfingers 7.12502
lthumb 10.6386 51.0864
rfemur 12.5617 1.28299 27.4131
rtibia 16.8001
rfoot -17.6734 -6.93662
rtoes -7.76644
lfemur -28.1927 4.32145 -13.9002
ltibia 27.5081
lfoot -3.61742 -9.30744
ltoes -5.55512
830
root -1.64033 17.4925 25.3136 1.70741 -1.37549 -5.23625
lowerback 4.92253 2.50451 4.01873
upperback 2.35123 3.52597 2.44872
thorax -0.247829 1.77812 0.0929715
lowerneck -13.013 0.438104 -7.91233
upperneck 40.5287 2.54245 2.11019
head 16.7459 0.173007 2.82582
rclavicle -2.99171e-014 -4.37326e-015
rhumerus -31.0741 -15.0166 -77.5496
rradius 22.775
rwrist -6.65024
rhand -21.0304 12.24
rfingers 7.12502
rthumb 5.34497 -17.6725
lclavicle -2.99171e-014 -4.37326e-015
lhumerus -35.6916 10.1422 83.0364
lradius 27.4361
lwrist -1.51374
lhand -15.0869 21.2611
lfingers 7.12502
lthumb 11.081 50.9485
rfemur 12.0923 1.01168 27.045
rtibia 18.23
rfoot -17.6435 -6.16887
rtoes -5.54628
lfemur -27.9209 4.56882 -14.1917
ltibia 27.6793
lfoot -3.97066 -9.68323
ltoes -6.12869
831
root -1.60606 17.5133 25.4076 1.75095 -1.45849 -5.0595
lowerback 4.94044 2.50849 4.06291
upperback 2.27791 3.53611 2.31217
thorax -0.321631 1.78222 -0.0749638
lowerneck -12.9936 0.451599 -7.97178
upperneck 40.6622 2.55364 2.19017
head 16.8104 0.174039 2.87854
rclavicle 3.24516e-014 1.35174e-014
rhumerus -30.9695 -15.0015 -77.5945
rradius 23.0131
rwrist -6.71471
rhand -21.1376 12.8883
rfingers 7.12502
rthumb 5.24148 -17.0268
lclavicle 3.24516e-014 1.35174e-014
lhumerus -35.6607 10.305 82.7541
lradius 27.6098
lwrist -1.34969
lhand -14.4965 21.7565
lfingers 7.12502
lthumb 11.6503 51.4126
rfemur 11.3547 0.735662 26.5375
rtibia 20.0245
rfoot -17.4467 -5.42857
rtoes -5.43506
lfemur -27.5499 4.26672 -14.4105
ltibia 27.6602
lfoot -3.88848 -9.72029
ltoes -4.20309
832
root -1.58207 17.5314 25.4972 1.63948 -1.69417 -4.78666
lowerback 5.02124 2.51318 3.79928
upperback 2.34674 3.53172 2.24382
thorax -0.308032 1.77948 -0.000749038
lowerneck -13.1069 0.488524 -8.2166
upperneck 40.7028 2.62625 2.36977
head 16.8481 0.187418 3.01874
rclavicle -1.61016e-014 -3.57812e-014
rhumerus -30.6682 -15.0004 -77.6397
rradius 23.2971
rwrist -6.86671
rhand -21.2066 13.0002
rfingers 7.12502
rthumb 5.17491 -16.9166
lclavicle -1.61016e-014 -3.57812e-014
lhumerus -35.3841 10.7217 82.5302
lradius 27.6536
lwrist -1.13458
lhand -14.8656 21.6074
lfingers 7.12502
lthumb 11.2944 51.2833
rfemur 10.5905 0.88107 26.098
rtibia 22.193
rfoot -17.1375 -5.23227
rtoes -6.72825
lfemur -26.8956 3.98915 -14.667
ltibia 27.3893
lfoot -3.73759 -9.64137
ltoes -2.11968
833
root -1.56142 17.5547 25.5954 1.40999 -1.85222 -4.39188
lowerback 5.03179 2.47921 3.33382
upperback 2.5302 3.45894 2.18161
thorax -0.151657 1.74373 0.201988
lowerneck -13.2947 0.573981 -8.09176
upperneck 40.6289 2.83848 2.1093
head 16.8497 0.257954 2.91569
rclavicle 6.70898e-015 -1.94809e-014
rhumerus -30.2048 -14.9 -77.7611
rradius 23.5503
rwrist -7.06177
rhand -21.241 12.8939
rfingers 7.12502
rthumb 5.14164 -17.0237
lclavicle 6.70898e-015 -1.94809e-014
lhumerus -35.0522 11.0875 82.4061
lradius 27.7075
lwrist -0.779782
lhand -15.4586 21.3005
lfingers 7.12502
lthumb 10.7225 51.0068
rfemur 9.84867 1.10871 25.5711
rtibia 24.5638
rfoot -16.7556 -5.07163
rtoes -6.19393
lfemur -25.991 3.83951 -15.1148
ltibia 26.9309
lfoot -3.73478 -9.79334
ltoes -1.49618
834
root -1.53037 17.5758 25.6997 1.15263 -1.9418 -4.27279
lowerback 5.15357 2.42397 3.3687
upperback 2.59931 3.38945 2.0779
thorax -0.141315 1.71049 0.0759649
lowerneck -13.2835 0.686635 -7.75178
upperneck 40.6513 3.02417 1.8075
head 16.8598 0.342698 2.75091
rclavicle -2.15184e-014 -1.98785e-015
rhumerus -30.0283 -14.6306 -78.0599
rradius 23.9743
rwrist -7.30146
rhand -21.3275 12.6579
rfingers 7.12502
rthumb 5.05811 -17.2618
lclavicle -2.15184e-014 -1.98785e-015
lhumerus -35.0655 11.0417 82.2347
lradius 28.0145
lwrist -0.505462
lhand -15.2161 22.2879
lfingers 7.12502
lthumb 10.9564 51.982
rfemur 9.1196 1.16149 25.1956
rtibia 27.012
rfoot -16.3337 -4.30975
rtoes -2.68032
lfemur -24.9795 3.45078 -15.2215
ltibia 26.3455
lfoot -3.48635 -9.90907
ltoes 1.95641
835
root -1.50002 17.5975 25.7922 0.924629 -2.29822 -4.09212
lowerback 5.45671 2.47852 3.38462
upperback 2.58608 3.47633 1.91497
thorax -0.310393 1.75242 -0.119161
lowerneck -12.9842 0.739628 -7.7691
upperneck 40.5348 3.03127 1.90535
head 16.7139 0.36346 2.78797
rclavicle 1.36664e-014 8.74653e-015
rhumerus -29.9922 -14.17 -78.4434
rradius 24.6043
rwrist -7.83997
rhand -21.4422 11.9668
rfingers 7.12502
rthumb 4.94737 -17.9554
lclavicle 1.36664e-014 8.74653e-015
lhumerus -35.105 10.6605 82.0902
lradius 28.2827
lwrist 0.047693
lhand -15.2419 23.0131
lfingers 7.12502
lthumb 10.9314 52.7085
rfemur 8.27904 1.29747 24.6947
rtibia 29.4158
rfoot -15.5965 -3.33942
rtoes 0.287543
lfemur -24.065 2.77483 -15.2342
ltibia 25.8312
lfoot -3.17118 -9.2601
ltoes 8.03263
836
root -1.47314 17.6232 25.88 0.90854 -2.72761 -3.5747
lowerback 5.59458 2.57648 2.90319
upperback 2.47475 3.59138 1.75477
thorax -0.518762 1.80387 -0.0328704
lowerneck -12.6123 0.787684 -7.8469
upperneck 40.3375 3.06631 1.93301
head 16.5078 0.381061 2.80433
rclavicle -4.22417e-015 -1.33186e-014
rhumerus -29.9823 -13.5328 -78.6808
rradius 25.2352
rwrist -8.71333
rhand -21.3587 11.3026
rfingers 7.12502
rthumb 5.02797 -18.6177
lclavicle -4.22417e-015 -1.33186e-014
lhumerus -35.0272 10.5486 81.9591
lradius 28.2748
lwrist 0.708078
lhand -15.7633 22.6596
lfingers 7.12502
lthumb 10.4285 52.381
rfemur 7.15333 1.21158 23.8148
rtibia 31.7286
rfoot -14.4296 -2.79747
rtoes -2.10804
lfemur -23.4872 2.62788 -15.7755
ltibia 25.4863
lfoot -3.10314 -8.63932
ltoes 10.4891
